<svg width="18" height="18" viewBox="0 0 18 18" fill="none" xmlns="http://www.w3.org/2000/svg">
<path fill-rule="evenodd" clip-rule="evenodd" d="M8.99099 17.9977C8.55885 18.0097 8.13872 17.9737 7.70658 17.9137C6.54221 17.7458 5.44986 17.3739 4.44154 16.762C2.20884 15.4183 0.780386 13.4628 0.192199 10.8953C0.0601575 10.3195 0.0001385 9.73162 0.0001385 9.14375C-0.0118653 6.7923 0.756378 4.72878 2.31687 2.97718C3.6733 1.46553 5.35383 0.541748 7.33446 0.157837C7.88664 0.0498615 8.43881 -0.0101246 8.99099 0.0138699C8.99099 0.913661 8.99099 1.80146 8.99099 2.70125C8.96698 2.71324 8.94297 2.72524 8.91896 2.74924C8.59486 2.97718 8.27076 3.21713 7.95866 3.46907C7.25043 4.04494 6.57822 4.65679 6.01404 5.38862C5.2578 6.3604 4.75364 7.42815 4.68162 8.68786C4.64561 9.28772 4.71763 9.87559 4.90969 10.4395C5.37784 11.8431 6.8303 13.2948 8.87095 13.3308C8.99099 13.3308 9.01499 13.3548 9.01499 13.4867C9.00299 14.0986 9.00299 15.3223 9.00299 15.3223C9.00299 15.3223 9.00299 15.3943 9.00299 15.4303C8.99098 16.2821 8.99099 17.1339 8.99099 17.9977Z" fill="#0099FF"/>
<path fill-rule="evenodd" clip-rule="evenodd" d="M8.99075 2.68921C8.99075 2.68921 8.99075 0.901629 8.99075 0.0018373C9.4829 -0.0101599 9.96306 0.037829 10.4432 0.109812C11.3435 0.253779 12.2078 0.517718 13.024 0.93762C14.7166 1.81342 16.049 3.06113 16.9493 4.76473C17.4654 5.74851 17.8015 6.79226 17.9336 7.88401C18.0896 9.16771 17.9696 10.4394 17.5855 11.6751C17.1413 13.0788 16.3971 14.3145 15.3528 15.3583C14.0804 16.618 12.5679 17.4338 10.8153 17.8057C10.2151 17.9257 9.60294 17.9977 8.99075 17.9857C8.99075 17.1219 8.99075 16.2701 8.99075 15.4063C8.99075 15.3703 8.99075 15.3103 8.99075 15.3103C8.99075 15.3103 9.02676 15.2863 9.03876 15.2743C9.97506 14.6144 10.8633 13.8946 11.6316 13.0308C12.1357 12.4669 12.5679 11.8671 12.868 11.1712C13.2881 10.1875 13.4562 9.17971 13.2401 8.11196C12.856 6.16841 11.1154 4.71674 9.11078 4.66876C8.97874 4.66876 8.99075 4.56078 8.99075 4.56078V2.68921Z" fill="#0561E2"/>
</svg>
